<svg width="22" height="20" viewBox="0 0 22 20" fill="none" xmlns="http://www.w3.org/2000/svg">
<path d="M6.71275 8.63636H4.42108C4.04158 8.63636 3.73358 8.33091 3.73358 7.95455C3.73358 7.57818 4.04158 7.27273 4.42108 7.27273H6.71275C7.09225 7.27273 7.40025 7.57818 7.40025 7.95455C7.40025 8.33091 7.09225 8.63636 6.71275 8.63636Z" fill="white"/>
<path d="M17.7127 8.63636H10.8378C10.4583 8.63636 10.1502 8.33091 10.1502 7.95455C10.1502 7.57818 10.4583 7.27273 10.8378 7.27273H17.7127C18.0923 7.27273 18.4002 7.57818 18.4002 7.95455C18.4002 8.33091 18.0923 8.63636 17.7127 8.63636Z" fill="white"/>
<path d="M6.71275 12.2727H4.42108C4.04158 12.2727 3.73358 11.9673 3.73358 11.5909C3.73358 11.2145 4.04158 10.9091 4.42108 10.9091H6.71275C7.09225 10.9091 7.40025 11.2145 7.40025 11.5909C7.40025 11.9673 7.09225 12.2727 6.71275 12.2727Z" fill="white"/>
<path d="M17.7127 12.2727H10.8378C10.4583 12.2727 10.1502 11.9673 10.1502 11.5909C10.1502 11.2145 10.4583 10.9091 10.8378 10.9091H17.7127C18.0923 10.9091 18.4002 11.2145 18.4002 11.5909C18.4002 11.9673 18.0923 12.2727 17.7127 12.2727Z" fill="white"/>
<path d="M6.71275 15.9091H4.42108C4.04158 15.9091 3.73358 15.6036 3.73358 15.2273C3.73358 14.8509 4.04158 14.5455 4.42108 14.5455H6.71275C7.09225 14.5455 7.40025 14.8509 7.40025 15.2273C7.40025 15.6036 7.09225 15.9091 6.71275 15.9091Z" fill="white"/>
<path d="M17.7127 15.9091H10.8378C10.4583 15.9091 10.1502 15.6036 10.1502 15.2273C10.1502 14.8509 10.4583 14.5455 10.8378 14.5455H17.7127C18.0923 14.5455 18.4002 14.8509 18.4002 15.2273C18.4002 15.6036 18.0923 15.9091 17.7127 15.9091Z" fill="white"/>
<path d="M19.4792 20H2.52083C1.13025 20 0 18.8791 0 17.5V2.5C0 1.12091 1.13025 0 2.52083 0H19.4792C20.8698 0 22 1.12091 22 2.5V17.5C22 18.8791 20.8698 20 19.4792 20ZM2.52083 1.36364C1.88925 1.36364 1.375 1.87364 1.375 2.5V17.5C1.375 18.1264 1.88925 18.6364 2.52083 18.6364H19.4792C20.1108 18.6364 20.625 18.1264 20.625 17.5V2.5C20.625 1.87364 20.1108 1.36364 19.4792 1.36364H2.52083Z" fill="white"/>
<path d="M21.3125 4.54545H0.6875C0.308 4.54545 0 4.24 0 3.86364C0 3.48727 0.308 3.18182 0.6875 3.18182H21.3125C21.692 3.18182 22 3.48727 22 3.86364C22 4.24 21.692 4.54545 21.3125 4.54545Z" fill="white"/>
</svg>
