<svg width="16" height="20" viewBox="0 0 16 20" fill="none" xmlns="http://www.w3.org/2000/svg">
<path d="M15.8197 4.85906L10.8967 0.17168C10.7818 0.0622266 10.625 0 10.4615 0H1.84615C0.828185 0 0 0.788555 0 1.75781V18.2422C0 19.2114 0.828185 20 1.84615 20H14.1538C15.1718 20 16 19.2114 16 18.2422V5.27344C16 5.11367 15.9296 4.96363 15.8197 4.85906ZM11.0769 2.00051L13.899 4.6875H11.6923C11.353 4.6875 11.0769 4.42465 11.0769 4.10156V2.00051ZM14.1538 18.8281H1.84615C1.50683 18.8281 1.23077 18.5653 1.23077 18.2422V1.75781C1.23077 1.43473 1.50683 1.17188 1.84615 1.17188H9.84615V4.10156C9.84615 5.07082 10.6743 5.85938 11.6923 5.85938H14.7692V18.2422C14.7692 18.5653 14.4932 18.8281 14.1538 18.8281Z" fill="white"/>
<path d="M11.6923 8.28125H4.30769C3.96784 8.28125 3.69231 8.54359 3.69231 8.86719C3.69231 9.19078 3.96784 9.45312 4.30769 9.45312H11.6923C12.0322 9.45312 12.3077 9.19078 12.3077 8.86719C12.3077 8.54359 12.0322 8.28125 11.6923 8.28125Z" fill="white"/>
<path d="M11.6923 10.625H4.30769C3.96784 10.625 3.69231 10.8873 3.69231 11.2109C3.69231 11.5345 3.96784 11.7969 4.30769 11.7969H11.6923C12.0322 11.7969 12.3077 11.5345 12.3077 11.2109C12.3077 10.8873 12.0322 10.625 11.6923 10.625Z" fill="white"/>
<path d="M11.6923 12.9688H4.30769C3.96784 12.9688 3.69231 13.2311 3.69231 13.5547C3.69231 13.8783 3.96784 14.1406 4.30769 14.1406H11.6923C12.0322 14.1406 12.3077 13.8783 12.3077 13.5547C12.3077 13.2311 12.0322 12.9688 11.6923 12.9688Z" fill="white"/>
<path d="M9.23077 15.3125H4.30769C3.96784 15.3125 3.69231 15.5748 3.69231 15.8984C3.69231 16.222 3.96784 16.4844 4.30769 16.4844H9.23077C9.57063 16.4844 9.84615 16.222 9.84615 15.8984C9.84615 15.5748 9.57063 15.3125 9.23077 15.3125Z" fill="white"/>
</svg>
