<svg width="20" height="14" viewBox="0 0 20 14" fill="none" xmlns="http://www.w3.org/2000/svg">
<path d="M17.8125 0H2.1875C0.981328 0 0 0.99917 0 2.22727V11.7727C0 13.0008 0.981328 14 2.1875 14H17.8125C19.0187 14 20 13.0008 20 11.7727V2.22727C20 0.99917 19.0187 0 17.8125 0ZM2.1875 1.27273H17.8125C18.3294 1.27273 18.75 1.70096 18.75 2.22727V3.5H1.25V2.22727C1.25 1.70096 1.67059 1.27273 2.1875 1.27273ZM17.8125 12.7273H2.1875C1.67059 12.7273 1.25 12.299 1.25 11.7727V4.77273H18.75V11.7727C18.75 12.299 18.3294 12.7273 17.8125 12.7273Z" fill="white"/>
<path d="M4.375 10.8182H3.75C3.40484 10.8182 3.125 10.5332 3.125 10.1818V9.54545C3.125 9.19402 3.40484 8.90909 3.75 8.90909H4.375C4.72016 8.90909 5 9.19402 5 9.54545V10.1818C5 10.5332 4.72016 10.8182 4.375 10.8182Z" fill="white"/>
</svg>
