<svg width="12" height="13" viewBox="0 0 12 13" fill="none" xmlns="http://www.w3.org/2000/svg">
<path d="M5.90925 6.26216C6.86109 6.26216 7.68521 5.95361 8.35876 5.34483C9.0321 4.73615 9.37359 3.99139 9.37359 3.13098C9.37359 2.27087 9.03221 1.52602 8.35865 0.917137C7.6851 0.308556 6.86098 0 5.90925 0C4.95729 0 4.13329 0.308556 3.45985 0.917236C2.7864 1.52592 2.4449 2.27077 2.4449 3.13098C2.4449 3.99139 2.7864 4.73624 3.45985 5.34492C4.13351 5.95351 4.95762 6.26216 5.90925 6.26216ZM4.05593 1.45589C4.57267 0.988846 5.17885 0.761818 5.90925 0.761818C6.63954 0.761818 7.24583 0.988846 7.76268 1.45589C8.27942 1.92304 8.53072 2.47102 8.53072 3.13098C8.53072 3.79114 8.27942 4.33902 7.76268 4.80617C7.24583 5.27332 6.63954 5.50034 5.90925 5.50034C5.17907 5.50034 4.57289 5.27322 4.05593 4.80617C3.53907 4.33912 3.28778 3.79114 3.28778 3.13098C3.28778 2.47102 3.53907 1.92304 4.05593 1.45589Z" fill="white"/>
<path d="M11.9709 9.99637C11.9515 9.74306 11.9122 9.46674 11.8544 9.17494C11.796 8.88097 11.7208 8.60306 11.6308 8.34905C11.5378 8.08652 11.4115 7.82726 11.2551 7.5788C11.093 7.32093 10.9025 7.09638 10.6888 6.91161C10.4652 6.7183 10.1916 6.56288 9.87508 6.44952C9.5597 6.33675 9.2102 6.27962 8.83633 6.27962C8.6895 6.27962 8.54751 6.33407 8.27328 6.49544C8.1045 6.59492 7.90709 6.70997 7.68674 6.83722C7.49833 6.94572 7.24308 7.04739 6.92781 7.13943C6.62022 7.22939 6.30792 7.27501 5.99956 7.27501C5.69142 7.27501 5.37912 7.22939 5.07131 7.13943C4.75637 7.04749 4.50101 6.94582 4.31293 6.83732C4.09467 6.71126 3.89714 6.59621 3.72584 6.49534C3.45184 6.33397 3.30984 6.27952 3.16301 6.27952C2.78903 6.27952 2.43964 6.33675 2.12437 6.44962C1.80811 6.56278 1.53432 6.7182 1.31057 6.91171C1.0968 7.09658 0.906304 7.32103 0.744335 7.5788C0.588181 7.82726 0.461766 8.08642 0.368711 8.34915C0.278838 8.60316 0.203669 8.88097 0.14529 9.17494C0.0873493 9.46634 0.0481738 9.74276 0.0287507 9.99667C0.00965671 10.2449 0 10.5033 0 10.7643C0 11.4429 0.238674 11.9923 0.709329 12.3975C1.17417 12.7973 1.78913 13 2.53719 13H9.46281C10.2107 13 10.8256 12.7973 11.2906 12.3975C11.7613 11.9926 12 11.443 12 10.7642C11.9999 10.5023 11.9901 10.2439 11.9709 9.99637ZM10.7094 11.8455C10.4023 12.1097 9.99448 12.2382 9.4627 12.2382H2.53719C2.0053 12.2382 1.59753 12.1097 1.29049 11.8456C0.989264 11.5865 0.842877 11.2327 0.842877 10.7643C0.842877 10.5207 0.851766 10.2802 0.869543 10.0493C0.886881 9.8228 0.922326 9.57395 0.974889 9.30953C1.02679 9.04839 1.09285 8.80331 1.17142 8.58144C1.24681 8.36869 1.34964 8.15803 1.47715 7.9551C1.59884 7.7617 1.73887 7.59576 1.89337 7.46207C2.0379 7.337 2.22006 7.23464 2.4347 7.15788C2.63321 7.08686 2.8563 7.04798 3.09849 7.04213C3.12801 7.05631 3.18057 7.08339 3.26572 7.13358C3.439 7.23563 3.63871 7.35207 3.8595 7.47952C4.10838 7.62294 4.42903 7.75247 4.81211 7.86425C5.20376 7.97871 5.6032 8.03683 5.99967 8.03683C6.39614 8.03683 6.79569 7.97871 7.18712 7.86435C7.57053 7.75237 7.89107 7.62294 8.14028 7.47932C8.36622 7.3488 8.56034 7.23573 8.73362 7.13358C8.81877 7.08349 8.87134 7.05631 8.90085 7.04213C9.14315 7.04798 9.36624 7.08686 9.56486 7.15788C9.7794 7.23464 9.96156 7.3371 10.1061 7.46207C10.2606 7.59566 10.4006 7.7616 10.5223 7.9552C10.6499 8.15803 10.7529 8.36879 10.8281 8.58134C10.9068 8.8035 10.973 9.04848 11.0248 9.30943C11.0772 9.57435 11.1128 9.8233 11.1301 10.0494V10.0496C11.148 10.2796 11.157 10.5201 11.1571 10.7643C11.157 11.2328 11.0106 11.5865 10.7094 11.8455Z" fill="white"/>
</svg>
